<svg version="1.1" xmlns="http://www.w3.org/2000/svg" width="512" height="512" viewBox="0 0 512 512">
    <path fill="currentColor" d="M432 96h-256c-44 0-80 36-80 80v256c0 44 36 80 80 80h256c44 0 80-36 80-80v-256c0-44-36-80-80-80zM208 448c-26.51 0-48-21.49-48-48s21.49-48 48-48 48 21.49 48 48-21.49 48-48 48zM208 256c-26.51 0-48-21.49-48-48s21.49-48 48-48 48 21.49 48 48-21.49 48-48 48zM304 352c-26.51 0-48-21.49-48-48s21.49-48 48-48 48 21.49 48 48-21.49 48-48 48zM400 448c-26.51 0-48-21.49-48-48s21.49-48 48-48 48 21.49 48 48-21.49 48-48 48zM400 256c-26.51 0-48-21.49-48-48s21.49-48 48-48 48 21.49 48 48-21.49 48-48 48zM414.38 64c-7.465-36.402-39.855-64-78.38-64h-256c-44 0-80 36-80 80v256c0 38.523 27.598 70.915 64 78.38v-318.38c0-17.6 14.4-32 32-32h318.38z"></path>
</svg>
